<svg width="52" height="32" viewBox="0 0 52 32" fill="none" xmlns="http://www.w3.org/2000/svg">
<g clip-path="url(#clip0_1208_654)">
<path fill-rule="evenodd" clip-rule="evenodd" d="M18.7753 28.538H32.6927V3.41602H18.7753V28.538Z" fill="#FF5F00"/>
<path fill-rule="evenodd" clip-rule="evenodd" d="M19.6589 15.9769C19.6589 10.8803 22.0346 6.34107 25.734 3.41596C23.0282 1.27638 19.6147 0 15.9043 0C7.12042 0 0 7.15323 0 15.9769C0 24.8007 7.12042 31.9539 15.9043 31.9539C19.6147 31.9539 23.0282 30.6775 25.734 28.5379C22.0346 25.6124 19.6589 21.0736 19.6589 15.9769Z" fill="#EB001B"/>
<path fill-rule="evenodd" clip-rule="evenodd" d="M51.4681 15.9769C51.4681 24.8007 44.3472 31.9539 35.5638 31.9539C31.8534 31.9539 28.4394 30.6775 25.7341 28.5379C29.4335 25.6128 31.8092 21.0736 31.8092 15.9769C31.8092 10.8807 29.4335 6.34152 25.7341 3.41596C28.4394 1.27638 31.8534 0 35.5638 0C44.3472 0 51.4681 7.15323 51.4681 15.9769Z" fill="#F79E1B"/>
</g>
<defs>
<clipPath id="clip0_1208_654">
<rect width="52" height="32" fill="white"/>
</clipPath>
</defs>
</svg>
