<svg id="logo_white" xmlns="http://www.w3.org/2000/svg" width="1129.731" height="316.056" viewBox="0 0 1129.731 316.056">
  <path id="Path_6791" data-name="Path 6791" d="M243.143,248.667l68.345,68.491H114.757V120.187l72.677,72.721A65.941,65.941,0,0,0,207.3,145.669c0-35.917-29.15-65.469-64.571-65.469-35.146,0-64.165,29.092-64.567,64.724V317H0V145.73C.048,66.373,64.463,1.1,142.731,1.1c78.3,0,142.731,65.328,142.731,144.716A145.782,145.782,0,0,1,243.143,248.667Z" transform="translate(0 -1.102)" fill="#6ae8ff" fill-rule="evenodd"/>
  <path id="Path_6792" data-name="Path 6792" d="M157.4,32.028,151.952,63.18a47.288,47.288,0,0,0-10.689-1.748,19.877,19.877,0,0,0-16.61,7.51,57.994,57.994,0,0,0-9.338,22.729v62.464H83.05V33.617h27.815l2.94,23.4a43.111,43.111,0,0,1,12.636-19.868A28.178,28.178,0,0,1,145.2,30.12,46.481,46.481,0,0,1,157.4,32.028Z" transform="translate(251.874 87.849)" fill="#fff"/>
  <path id="Path_6793" data-name="Path 6793" d="M208.987,103.8h-75.5c1.073,10.927,3.974,18.636,8.9,23.206a27.828,27.828,0,0,0,19.868,6.795,42.136,42.136,0,0,0,14.583-2.5,68.226,68.226,0,0,0,14.782-7.947l13.391,18.2a70.857,70.857,0,0,1-45.7,16.371q-28.449,0-43.709-17.047T100.509,94.7a81.05,81.05,0,0,1,6.477-33.14A53.055,53.055,0,0,1,125.86,38.516,51.207,51.207,0,0,1,155.3,30.092q25.671,0,40.014,16.133t14.464,45.06C209.782,92.8,209.424,96.967,208.987,103.8ZM177.6,82.186q0-30-21.616-30A18.411,18.411,0,0,0,140.4,59.576q-5.561,7.391-6.715,23.841H177.6Z" transform="translate(304.995 87.769)" fill="#fff"/>
  <path id="Path_6794" data-name="Path 6794" d="M140.1,189.415a34.789,34.789,0,0,1-8.186-24.837V21.787L164.261,18V163.682c0,5.415,2.225,8.143,6.6,8.143a13.609,13.609,0,0,0,6.358-1.384l6.6,23.534a50.186,50.186,0,0,1-20.662,4.072A29.9,29.9,0,0,1,140.1,189.415Z" transform="translate(399.684 49.145)" fill="#fff"/>
  <path id="Path_6795" data-name="Path 6795" d="M245.4,47.033Q260.661,63.96,260.661,94a76.844,76.844,0,0,1-6.954,33.537,51.665,51.665,0,0,1-19.868,22.411,58.123,58.123,0,0,1-30.795,7.947q-27.06,0-42.4-16.967T145.308,94A76.711,76.711,0,0,1,152.1,60.463,52.047,52.047,0,0,1,171.97,38.052,58.6,58.6,0,0,1,203,30.105Q230.183,30.105,245.4,47.033Zm-60.6,16.848q-6,9.656-6,30.12t6,30.12a21.735,21.735,0,0,0,36.16,0q6-9.656,6.04-30.12t-5.921-30.12a19.658,19.658,0,0,0-17.96-9.656A20.17,20.17,0,0,0,184.805,63.88Z" transform="translate(440.971 87.797)" fill="#fff"/>
  <path id="Path_6796" data-name="Path 6796" d="M278.951,131.138a11.92,11.92,0,0,0,6.795,4.888L278.951,157.4a39.2,39.2,0,0,1-17.4-5.007,25.959,25.959,0,0,1-10.331-12.715q-11.921,18.161-36.16,18.2a38.913,38.913,0,0,1-28.53-10.371,35.785,35.785,0,0,1-10.49-26.941A35.281,35.281,0,0,1,190.38,90.329q14.3-10.413,41.166-10.451h13.868V73.958c0-7.431-1.669-12.556-5.007-15.457a25.469,25.469,0,0,0-16.689-4.291,104.285,104.285,0,0,0-31.789,6.358l-7.271-21.616a120.721,120.721,0,0,1,44.583-8.861c16.331,0,28.411,3.536,36.12,10.57s11.6,17.563,11.6,31.51v48.637A19.88,19.88,0,0,0,278.951,131.138Zm-33.656-10.013V98.316H234.606q-26.184,0-26.146,19.55a17.947,17.947,0,0,0,3.974,12.4,14.682,14.682,0,0,0,11.484,4.411A23.872,23.872,0,0,0,245.294,121.125Z" transform="translate(534.105 87.813)" fill="#fff"/>
  <path id="Path_6797" data-name="Path 6797" d="M316.726,21.787V194.42H288.315l-1.828-15.146a39.535,39.535,0,0,1-34.53,18.892,38.42,38.42,0,0,1-34.014-17.589q-11.682-17.589-11.682-47.881a89.548,89.548,0,0,1,6-33.916,53.3,53.3,0,0,1,17.166-23.167,41.7,41.7,0,0,1,25.709-8.387A40.432,40.432,0,0,1,284.461,79.44V18ZM274.01,169.869a39.085,39.085,0,0,0,10.451-11.319V103.5a38.585,38.585,0,0,0-9.656-8.754,21.931,21.931,0,0,0-11.285-2.891,19.518,19.518,0,0,0-17.365,10.016q-6.241,10.016-6.278,30.984c0,14.739,1.868,25.244,5.6,31.432a17.582,17.582,0,0,0,15.894,9.324A22.257,22.257,0,0,0,274.01,169.869Z" transform="translate(625.945 49.145)" fill="#fff"/>
  <path id="Path_6798" data-name="Path 6798" d="M248.3,189.355a34.964,34.964,0,0,1-8.186-24.837V21.725l32.305-3.705v145.6c0,5.415,2.185,8.143,6.6,8.143a13.709,13.709,0,0,0,6.358-1.384l6.6,23.534a50.579,50.579,0,0,1-20.7,4.072A29.991,29.991,0,0,1,248.3,189.355Z" transform="translate(729.284 49.205)" fill="#fff"/>
  <path id="Path_6799" data-name="Path 6799" d="M329.319,151.757a72.023,72.023,0,0,1-22.848,35.484c-10.411,8.3-24.438,13.113-42.2,14.3l-3.417-23.206a55.639,55.639,0,0,0,25.351-8.265,42.041,42.041,0,0,0,13.311-18.636H288.391L250.88,31h34.331l24.08,99.578L334.8,31H368.22Z" transform="translate(761.511 92.139)" fill="#fff"/>
</svg>
